<svg width="16" height="16" viewBox="0 0 16 16" fill="none" xmlns="http://www.w3.org/2000/svg">
<g id="&#228;&#184;&#170;&#228;&#186;&#186;&#232;&#174;&#190;&#231;&#189;&#174;">
<g id="Group 35">
<path id="Vector" d="M10.75 5C10.75 6.65685 9.40685 8 7.75 8C6.09315 8 4.75 6.65685 4.75 5C4.75 3.34315 6.09315 2 7.75 2C9.40685 2 10.75 3.34315 10.75 5Z" stroke="#333333" stroke-linecap="round" stroke-linejoin="round"/>
<path id="Vector_2" d="M1.75 14C1.75 10.6863 4.4363 8 7.75 8" stroke="#333333" stroke-linecap="round" stroke-linejoin="round"/>
<g id="Group 34">
<path id="Vector_3" d="M12.75 14L14.25 11.5L12.75 9H9.75003L8.25 11.5L9.75003 14H12.75Z" stroke="#333333" stroke-linejoin="round"/>
<path id="Vector_4" d="M11.25 12.5C11.8023 12.5 12.25 12.0523 12.25 11.5C12.25 10.9477 11.8023 10.5 11.25 10.5C10.6977 10.5 10.25 10.9477 10.25 11.5C10.25 12.0523 10.6977 12.5 11.25 12.5Z" fill="#333333"/>
</g>
</g>
</g>
</svg>
